<mxfile host="Electron" agent="Mozilla/5.0 (Macintosh; Intel Mac OS X 10_15_7) AppleWebKit/537.36 (KHTML, like Gecko) draw.io/24.7.17 Chrome/128.0.6613.36 Electron/32.0.1 Safari/537.36" version="24.7.17">
  <diagram name="Page-1" id="vqkWI18RvX62V7ljMnGp">
    <mxGraphModel dx="940" dy="694" grid="1" gridSize="10" guides="1" tooltips="1" connect="1" arrows="1" fold="1" page="1" pageScale="1" pageWidth="1654" pageHeight="2336" math="0" shadow="0">
      <root>
        <mxCell id="0" />
        <mxCell id="1" parent="0" />
        <mxCell id="vIMRHhVObv1W3n3NCIDt-7" value="&lt;b style=&quot;font-size: 14px;&quot;&gt;Data Lake&lt;/b&gt;" style="rounded=0;whiteSpace=wrap;html=1;fillColor=#d5e8d4;strokeColor=#82b366;fillStyle=solid;gradientColor=none;shadow=0;opacity=50;verticalAlign=top;fontSize=14;" vertex="1" parent="1">
          <mxGeometry x="260" y="290" width="480" height="120" as="geometry" />
        </mxCell>
        <mxCell id="vIMRHhVObv1W3n3NCIDt-9" style="edgeStyle=orthogonalEdgeStyle;rounded=0;orthogonalLoop=1;jettySize=auto;html=1;exitX=1;exitY=0.5;exitDx=0;exitDy=0;entryX=0;entryY=0.5;entryDx=0;entryDy=0;fontSize=14;" edge="1" parent="1" source="vIMRHhVObv1W3n3NCIDt-1" target="vIMRHhVObv1W3n3NCIDt-2">
          <mxGeometry relative="1" as="geometry" />
        </mxCell>
        <mxCell id="vIMRHhVObv1W3n3NCIDt-1" value="Bronze" style="rounded=0;whiteSpace=wrap;html=1;fontSize=14;" vertex="1" parent="1">
          <mxGeometry x="280" y="320" width="120" height="60" as="geometry" />
        </mxCell>
        <mxCell id="vIMRHhVObv1W3n3NCIDt-10" style="edgeStyle=orthogonalEdgeStyle;rounded=0;orthogonalLoop=1;jettySize=auto;html=1;exitX=1;exitY=0.5;exitDx=0;exitDy=0;entryX=0;entryY=0.5;entryDx=0;entryDy=0;fontSize=14;" edge="1" parent="1" source="vIMRHhVObv1W3n3NCIDt-2" target="vIMRHhVObv1W3n3NCIDt-3">
          <mxGeometry relative="1" as="geometry" />
        </mxCell>
        <mxCell id="vIMRHhVObv1W3n3NCIDt-2" value="Silver" style="rounded=0;whiteSpace=wrap;html=1;fontSize=14;" vertex="1" parent="1">
          <mxGeometry x="440" y="320" width="120" height="60" as="geometry" />
        </mxCell>
        <mxCell id="vIMRHhVObv1W3n3NCIDt-11" style="edgeStyle=orthogonalEdgeStyle;rounded=0;orthogonalLoop=1;jettySize=auto;html=1;exitX=1;exitY=0.5;exitDx=0;exitDy=0;entryX=0;entryY=0.5;entryDx=0;entryDy=0;fontSize=14;" edge="1" parent="1" source="vIMRHhVObv1W3n3NCIDt-3" target="vIMRHhVObv1W3n3NCIDt-4">
          <mxGeometry relative="1" as="geometry" />
        </mxCell>
        <mxCell id="vIMRHhVObv1W3n3NCIDt-3" value="Gold" style="rounded=0;whiteSpace=wrap;html=1;fontSize=14;" vertex="1" parent="1">
          <mxGeometry x="600" y="320" width="120" height="60" as="geometry" />
        </mxCell>
        <mxCell id="vIMRHhVObv1W3n3NCIDt-4" value="Users" style="rounded=0;whiteSpace=wrap;html=1;fontSize=14;" vertex="1" parent="1">
          <mxGeometry x="760" y="290" width="120" height="120" as="geometry" />
        </mxCell>
        <mxCell id="vIMRHhVObv1W3n3NCIDt-8" style="edgeStyle=orthogonalEdgeStyle;rounded=0;orthogonalLoop=1;jettySize=auto;html=1;exitX=1;exitY=0.5;exitDx=0;exitDy=0;entryX=0;entryY=0.5;entryDx=0;entryDy=0;fontSize=14;" edge="1" parent="1" source="vIMRHhVObv1W3n3NCIDt-6" target="vIMRHhVObv1W3n3NCIDt-1">
          <mxGeometry relative="1" as="geometry" />
        </mxCell>
        <mxCell id="vIMRHhVObv1W3n3NCIDt-6" value="Data Source" style="rounded=0;whiteSpace=wrap;html=1;fontSize=14;" vertex="1" parent="1">
          <mxGeometry x="120" y="290" width="120" height="120" as="geometry" />
        </mxCell>
      </root>
    </mxGraphModel>
  </diagram>
</mxfile>
